<svg xmlns="http://www.w3.org/2000/svg" xmlns:xlink="http://www.w3.org/1999/xlink" contentStyleType="text/css" data-diagram-type="DESCRIPTION" height="1237px" preserveAspectRatio="none" style="width:1625px;height:1237px;background:#FFFFFF;" version="1.1" viewBox="0 0 1625 1237" width="1625px" zoomAndPan="magnify"><title>Architekturdiagramm mit Circuit Breaker Proxy und Load Balancer f&#195;&#188;r Netflix</title><defs/><g><text fill="#000000" font-family="sans-serif" font-size="14" font-weight="bold" lengthAdjust="spacing" textLength="525.9229" x="542.5386" y="24.5332">Architekturdiagramm mit Circuit Breaker Proxy und Load Balancer f&#195;&#188;r Netflix</text><!--cluster Clients--><g id="cluster_Clients"><path d="M420.5,133.1094 L468.1758,133.1094 A3.75,3.75 0 0 1 470.6758,135.6094 L477.6758,156.7188 L786.5,156.7188 A2.5,2.5 0 0 1 789,159.2188 L789,220.6094 A2.5,2.5 0 0 1 786.5,223.1094 L420.5,223.1094 A2.5,2.5 0 0 1 418,220.6094 L418,135.6094 A2.5,2.5 0 0 1 420.5,133.1094 " fill="transparent" style="stroke:#000000;stroke-width:1.5;"/><line style="stroke:#000000;stroke-width:1.5;" x1="418" x2="477.6758" y1="156.7188" y2="156.7188"/><text fill="#000000" font-family="sans-serif" font-size="14" font-weight="bold" lengthAdjust="spacing" textLength="46.6758" x="422" y="149.6426">Clients</text></g><!--cluster DNS Layer--><g id="cluster_DNS Layer"><path d="M815.5,44.6094 L887.3066,44.6094 A3.75,3.75 0 0 1 889.8066,47.1094 L896.8066,68.2188 L1202.5,68.2188 A2.5,2.5 0 0 1 1205,70.7188 L1205,349.8294 A2.5,2.5 0 0 1 1202.5,352.3294 L815.5,352.3294 A2.5,2.5 0 0 1 813,349.8294 L813,47.1094 A2.5,2.5 0 0 1 815.5,44.6094 " fill="#E0F7FA" style="stroke:#00796B;stroke-width:1.5;"/><line style="stroke:#00796B;stroke-width:1.5;" x1="813" x2="896.8066" y1="68.2188" y2="68.2188"/><text fill="#000000" font-family="sans-serif" font-size="14" font-weight="bold" lengthAdjust="spacing" textLength="70.8066" x="817" y="61.1426">DNS Layer</text><text fill="#000000" font-family="sans-serif" font-size="14" font-style="italic" lengthAdjust="spacing" textLength="45.1309" x="990.4346" y="84.752">&#171;DNS&#187;</text></g><!--cluster DLB--><g id="cluster_DLB"><rect fill="transparent" height="205.72" rx="2.5" ry="2.5" style="stroke:#181818;stroke-width:1;" width="328" x="845" y="114.6094"/><text fill="#000000" font-family="sans-serif" font-size="14" font-weight="bold" lengthAdjust="spacing" textLength="129.9238" x="944.0381" y="131.1426">DNS Load Balancer</text></g><!--cluster Namespace ns-1372.dns-eu.netflix.com--><g id="cluster_Namespace ns-1372.dns-eu.netflix.com"><path d="M8.5,402.3294 L270.9336,402.3294 A3.75,3.75 0 0 1 273.4336,404.8294 L280.4336,425.9388 L797.5,425.9388 A2.5,2.5 0 0 1 800,428.4388 L800,1227.8294 A2.5,2.5 0 0 1 797.5,1230.3294 L8.5,1230.3294 A2.5,2.5 0 0 1 6,1227.8294 L6,404.8294 A2.5,2.5 0 0 1 8.5,402.3294 " fill="#F3E5F5" style="stroke:#6A1B9A;stroke-width:1.5;"/><line style="stroke:#6A1B9A;stroke-width:1.5;" x1="6" x2="280.4336" y1="425.9388" y2="425.9388"/><text fill="#000000" font-family="sans-serif" font-size="14" font-weight="bold" lengthAdjust="spacing" textLength="261.4336" x="10" y="418.8626">Namespace ns-1372.dns-eu.netflix.com</text><text fill="#000000" font-family="sans-serif" font-size="14" font-style="italic" lengthAdjust="spacing" textLength="98.0615" x="357.9692" y="442.472">&#171;Namespace1&#187;</text></g><!--cluster ILB1--><g id="cluster_ILB1"><path d="M568.5,464.3294 L719.665,464.3294 A3.75,3.75 0 0 1 722.165,466.8294 L729.165,487.9388 L747.5,487.9388 A2.5,2.5 0 0 1 750,490.4388 L750,667.8294 A2.5,2.5 0 0 1 747.5,670.3294 L568.5,670.3294 A2.5,2.5 0 0 1 566,667.8294 L566,466.8294 A2.5,2.5 0 0 1 568.5,464.3294 " fill="transparent" style="stroke:#000000;stroke-width:1.5;"/><line style="stroke:#000000;stroke-width:1.5;" x1="566" x2="729.165" y1="487.9388" y2="487.9388"/><text fill="#000000" font-family="sans-serif" font-size="14" font-weight="bold" lengthAdjust="spacing" textLength="150.165" x="570" y="480.8626">Ingress Load Balancer</text></g><!--cluster PBS1--><g id="cluster_PBS1"><path d="M236.5,720.3294 L429.6924,720.3294 A3.75,3.75 0 0 1 432.1924,722.8294 L439.1924,743.9388 L773.5,743.9388 A2.5,2.5 0 0 1 776,746.4388 L776,807.8294 A2.5,2.5 0 0 1 773.5,810.3294 L236.5,810.3294 A2.5,2.5 0 0 1 234,807.8294 L234,722.8294 A2.5,2.5 0 0 1 236.5,720.3294 " fill="transparent" style="stroke:#000000;stroke-width:1.5;"/><line style="stroke:#000000;stroke-width:1.5;" x1="234" x2="439.1924" y1="743.9388" y2="743.9388"/><text fill="#000000" font-family="sans-serif" font-size="14" font-weight="bold" lengthAdjust="spacing" textLength="192.1924" x="238" y="736.8626">PlaybackService API (public)</text></g><!--cluster RLB1--><g id="cluster_RLB1"><path d="M401.5,860.3294 L620.3271,860.3294 A3.75,3.75 0 0 1 622.8271,862.8294 L629.8271,883.9388 L629.5,883.9388 A2.5,2.5 0 0 1 632,886.4388 L632,1063.8294 A2.5,2.5 0 0 1 629.5,1066.3294 L401.5,1066.3294 A2.5,2.5 0 0 1 399,1063.8294 L399,862.8294 A2.5,2.5 0 0 1 401.5,860.3294 " fill="transparent" style="stroke:#000000;stroke-width:1.5;"/><line style="stroke:#000000;stroke-width:1.5;" x1="399" x2="629.8271" y1="883.9388" y2="883.9388"/><text fill="#000000" font-family="sans-serif" font-size="14" font-weight="bold" lengthAdjust="spacing" textLength="217.8271" x="403" y="876.8626">Recommendation Load Balancer</text></g><!--cluster CRS1--><g id="cluster_CRS1"><path d="M32.5,1116.3294 L340.0098,1116.3294 A3.75,3.75 0 0 1 342.5098,1118.8294 L349.5098,1139.9388 L773.5,1139.9388 A2.5,2.5 0 0 1 776,1142.4388 L776,1203.8294 A2.5,2.5 0 0 1 773.5,1206.3294 L32.5,1206.3294 A2.5,2.5 0 0 1 30,1203.8294 L30,1118.8294 A2.5,2.5 0 0 1 32.5,1116.3294 " fill="transparent" style="stroke:#000000;stroke-width:1.5;"/><line style="stroke:#000000;stroke-width:1.5;" x1="30" x2="349.5098" y1="1139.9388" y2="1139.9388"/><text fill="#000000" font-family="sans-serif" font-size="14" font-weight="bold" lengthAdjust="spacing" textLength="306.5098" x="34" y="1132.8626">ContentRecommendationService API (private)</text></g><!--cluster Namespace ns-0471.dns-us.netflix.com--><g id="cluster_Namespace ns-0471.dns-us.netflix.com"><path d="M826.5,402.3294 L1088.9336,402.3294 A3.75,3.75 0 0 1 1091.4336,404.8294 L1098.4336,425.9388 L1615.5,425.9388 A2.5,2.5 0 0 1 1618,428.4388 L1618,1227.8294 A2.5,2.5 0 0 1 1615.5,1230.3294 L826.5,1230.3294 A2.5,2.5 0 0 1 824,1227.8294 L824,404.8294 A2.5,2.5 0 0 1 826.5,402.3294 " fill="#FFF3E0" style="stroke:#E65100;stroke-width:1.5;"/><line style="stroke:#E65100;stroke-width:1.5;" x1="824" x2="1098.4336" y1="425.9388" y2="425.9388"/><text fill="#000000" font-family="sans-serif" font-size="14" font-weight="bold" lengthAdjust="spacing" textLength="261.4336" x="828" y="418.8626">Namespace ns-0471.dns-us.netflix.com</text><text fill="#000000" font-family="sans-serif" font-size="14" font-style="italic" lengthAdjust="spacing" textLength="98.0615" x="1175.9692" y="442.472">&#171;Namespace2&#187;</text></g><!--cluster ILB2--><g id="cluster_ILB2"><path d="M943.5,464.3294 L1094.665,464.3294 A3.75,3.75 0 0 1 1097.165,466.8294 L1104.165,487.9388 L1122.5,487.9388 A2.5,2.5 0 0 1 1125,490.4388 L1125,667.8294 A2.5,2.5 0 0 1 1122.5,670.3294 L943.5,670.3294 A2.5,2.5 0 0 1 941,667.8294 L941,466.8294 A2.5,2.5 0 0 1 943.5,464.3294 " fill="transparent" style="stroke:#000000;stroke-width:1.5;"/><line style="stroke:#000000;stroke-width:1.5;" x1="941" x2="1104.165" y1="487.9388" y2="487.9388"/><text fill="#000000" font-family="sans-serif" font-size="14" font-weight="bold" lengthAdjust="spacing" textLength="150.165" x="945" y="480.8626">Ingress Load Balancer</text></g><!--cluster PBS2--><g id="cluster_PBS2"><path d="M850.5,720.3294 L1043.6924,720.3294 A3.75,3.75 0 0 1 1046.1924,722.8294 L1053.1924,743.9388 L1387.5,743.9388 A2.5,2.5 0 0 1 1390,746.4388 L1390,807.8294 A2.5,2.5 0 0 1 1387.5,810.3294 L850.5,810.3294 A2.5,2.5 0 0 1 848,807.8294 L848,722.8294 A2.5,2.5 0 0 1 850.5,720.3294 " fill="transparent" style="stroke:#000000;stroke-width:1.5;"/><line style="stroke:#000000;stroke-width:1.5;" x1="848" x2="1053.1924" y1="743.9388" y2="743.9388"/><text fill="#000000" font-family="sans-serif" font-size="14" font-weight="bold" lengthAdjust="spacing" textLength="192.1924" x="852" y="736.8626">PlaybackService API (public)</text></g><!--cluster RLB2--><g id="cluster_RLB2"><path d="M1088.5,860.3294 L1307.3271,860.3294 A3.75,3.75 0 0 1 1309.8271,862.8294 L1316.8271,883.9388 L1316.5,883.9388 A2.5,2.5 0 0 1 1319,886.4388 L1319,1063.8294 A2.5,2.5 0 0 1 1316.5,1066.3294 L1088.5,1066.3294 A2.5,2.5 0 0 1 1086,1063.8294 L1086,862.8294 A2.5,2.5 0 0 1 1088.5,860.3294 " fill="transparent" style="stroke:#000000;stroke-width:1.5;"/><line style="stroke:#000000;stroke-width:1.5;" x1="1086" x2="1316.8271" y1="883.9388" y2="883.9388"/><text fill="#000000" font-family="sans-serif" font-size="14" font-weight="bold" lengthAdjust="spacing" textLength="217.8271" x="1090" y="876.8626">Recommendation Load Balancer</text></g><!--cluster CRS2--><g id="cluster_CRS2"><path d="M850.5,1116.3294 L1158.0098,1116.3294 A3.75,3.75 0 0 1 1160.5098,1118.8294 L1167.5098,1139.9388 L1591.5,1139.9388 A2.5,2.5 0 0 1 1594,1142.4388 L1594,1203.8294 A2.5,2.5 0 0 1 1591.5,1206.3294 L850.5,1206.3294 A2.5,2.5 0 0 1 848,1203.8294 L848,1118.8294 A2.5,2.5 0 0 1 850.5,1116.3294 " fill="transparent" style="stroke:#000000;stroke-width:1.5;"/><line style="stroke:#000000;stroke-width:1.5;" x1="848" x2="1167.5098" y1="1139.9388" y2="1139.9388"/><text fill="#000000" font-family="sans-serif" font-size="14" font-weight="bold" lengthAdjust="spacing" textLength="306.5098" x="852" y="1132.8626">ContentRecommendationService API (private)</text></g><!--entity Client 1--><g id="elem_Client 1"><rect fill="#F1F1F1" height="37.6094" rx="2.5" ry="2.5" style="stroke:#181818;stroke-width:0.5;" width="67.4688" x="501.5" y="169.1094"/><text fill="#000000" font-family="sans-serif" font-size="14" lengthAdjust="spacing" textLength="47.4688" x="511.5" y="193.6426">Client 1</text></g><!--entity Client 2--><g id="elem_Client 2"><rect fill="#F1F1F1" height="37.6094" rx="2.5" ry="2.5" style="stroke:#181818;stroke-width:0.5;" width="67.4688" x="603.5" y="169.1094"/><text fill="#000000" font-family="sans-serif" font-size="14" lengthAdjust="spacing" textLength="47.4688" x="613.5" y="193.6426">Client 2</text></g><!--entity Client 3--><g id="elem_Client 3"><rect fill="#F1F1F1" height="37.6094" rx="2.5" ry="2.5" style="stroke:#181818;stroke-width:0.5;" width="67.4688" x="705.5" y="169.1094"/><text fill="#000000" font-family="sans-serif" font-size="14" lengthAdjust="spacing" textLength="47.4688" x="715.5" y="193.6426">Client 3</text></g><!--entity ...--><g id="elem_..."><rect fill="#F1F1F1" height="37.6094" rx="2.5" ry="2.5" style="stroke:#181818;stroke-width:0.5;" width="31.6689" x="434" y="169.1094"/><text fill="#000000" font-family="sans-serif" font-size="14" lengthAdjust="spacing" textLength="11.6689" x="444" y="193.6426">...</text></g><g id="elem_GMN9"><path d="M869.5,158.6094 L869.5,217.6641 L1148.4941,217.6641 L1148.4941,168.6094 L1138.4941,158.6094 L869.5,158.6094 " fill="#FEFFDD" style="stroke:#181818;stroke-width:0.5;"/><path d="M1138.4941,158.6094 L1138.4941,168.6094 L1148.4941,168.6094 L1138.4941,158.6094 " fill="#FEFFDD" style="stroke:#181818;stroke-width:1;"/><text fill="#000000" font-family="sans-serif" font-size="13" lengthAdjust="spacing" textLength="162.5762" x="875.5" y="177.1045">DNS-basierte Lastverteilung</text><text fill="#000000" font-family="sans-serif" font-size="13" lengthAdjust="spacing" textLength="257.9941" x="875.5" y="193.4561">Verweist auf passende Namespaces anhand</text><text fill="#000000" font-family="sans-serif" font-size="13" lengthAdjust="spacing" textLength="245.7178" x="875.5" y="209.8076">Regeln wie Round Robin und Geolocation.</text></g><!--entity LB--><g id="elem_LB"><rect fill="#F1F1F1" height="37.6094" rx="2.5" ry="2.5" style="stroke:#181818;stroke-width:0.5;" width="110.2891" x="603" y="500.3294"/><text fill="#000000" font-family="sans-serif" font-size="14" lengthAdjust="spacing" textLength="90.2891" x="613" y="524.8626">Load Balancer</text></g><!--entity CBP--><g id="elem_CBP"><rect fill="#F1F1F1" height="37.6094" rx="2.5" ry="2.5" style="stroke:#181818;stroke-width:0.5;" width="152.2549" x="582" y="616.3294"/><text fill="#000000" font-family="sans-serif" font-size="14" lengthAdjust="spacing" textLength="132.2549" x="592" y="640.8626">Circuit Breaker Proxy</text></g><!--entity PS1--><g id="elem_PS1"><rect fill="#F1F1F1" height="37.6094" rx="2.5" ry="2.5" style="stroke:#181818;stroke-width:0.5;" width="203.627" x="317" y="756.3294"/><text fill="#000000" font-family="sans-serif" font-size="14" lengthAdjust="spacing" textLength="183.627" x="327" y="780.8626">PlaybackService 1 (stateless)</text></g><!--entity PS2--><g id="elem_PS2"><rect fill="#F1F1F1" height="37.6094" rx="2.5" ry="2.5" style="stroke:#181818;stroke-width:0.5;" width="203.627" x="556" y="756.3294"/><text fill="#000000" font-family="sans-serif" font-size="14" lengthAdjust="spacing" textLength="183.627" x="566" y="780.8626">PlaybackService 2 (stateless)</text></g><!--entity PS3--><g id="elem_PS3"><rect fill="#F1F1F1" height="37.6094" rx="2.5" ry="2.5" style="stroke:#181818;stroke-width:0.5;" width="31.6689" x="250" y="756.3294"/><text fill="#000000" font-family="sans-serif" font-size="14" lengthAdjust="spacing" textLength="11.6689" x="260" y="780.8626">...</text></g><!--entity LB2--><g id="elem_LB2"><rect fill="#F1F1F1" height="37.6094" rx="2.5" ry="2.5" style="stroke:#181818;stroke-width:0.5;" width="110.2891" x="439" y="896.3294"/><text fill="#000000" font-family="sans-serif" font-size="14" lengthAdjust="spacing" textLength="90.2891" x="449" y="920.8626">Load Balancer</text></g><!--entity CBP2--><g id="elem_CBP2"><rect fill="#F1F1F1" height="37.6094" rx="2.5" ry="2.5" style="stroke:#181818;stroke-width:0.5;" width="152.2549" x="439" y="1012.3294"/><text fill="#000000" font-family="sans-serif" font-size="14" lengthAdjust="spacing" textLength="132.2549" x="449" y="1036.8626">Circuit Breaker Proxy</text></g><!--entity CS1--><g id="elem_CS1"><rect fill="#F1F1F1" height="37.6094" rx="2.5" ry="2.5" style="stroke:#181818;stroke-width:0.5;" width="305.5781" x="113" y="1152.3294"/><text fill="#000000" font-family="sans-serif" font-size="14" lengthAdjust="spacing" textLength="285.5781" x="123" y="1176.8626">ContentRecommendationService 1 (stateless)</text></g><!--entity CS2--><g id="elem_CS2"><rect fill="#F1F1F1" height="37.6094" rx="2.5" ry="2.5" style="stroke:#181818;stroke-width:0.5;" width="305.5781" x="454" y="1152.3294"/><text fill="#000000" font-family="sans-serif" font-size="14" lengthAdjust="spacing" textLength="285.5781" x="464" y="1176.8626">ContentRecommendationService 2 (stateless)</text></g><!--entity CS3--><g id="elem_CS3"><rect fill="#F1F1F1" height="37.6094" rx="2.5" ry="2.5" style="stroke:#181818;stroke-width:0.5;" width="31.6689" x="46" y="1152.3294"/><text fill="#000000" font-family="sans-serif" font-size="14" lengthAdjust="spacing" textLength="11.6689" x="56" y="1176.8626">...</text></g><!--entity LB_--><g id="elem_LB_"><rect fill="#F1F1F1" height="37.6094" rx="2.5" ry="2.5" style="stroke:#181818;stroke-width:0.5;" width="110.2891" x="957" y="500.3294"/><text fill="#000000" font-family="sans-serif" font-size="14" lengthAdjust="spacing" textLength="90.2891" x="967" y="524.8626">Load Balancer</text></g><!--entity CBP_--><g id="elem_CBP_"><rect fill="#F1F1F1" height="37.6094" rx="2.5" ry="2.5" style="stroke:#181818;stroke-width:0.5;" width="152.2549" x="957" y="616.3294"/><text fill="#000000" font-family="sans-serif" font-size="14" lengthAdjust="spacing" textLength="132.2549" x="967" y="640.8626">Circuit Breaker Proxy</text></g><!--entity PS1_--><g id="elem_PS1_"><rect fill="#F1F1F1" height="37.6094" rx="2.5" ry="2.5" style="stroke:#181818;stroke-width:0.5;" width="203.627" x="931" y="756.3294"/><text fill="#000000" font-family="sans-serif" font-size="14" lengthAdjust="spacing" textLength="183.627" x="941" y="780.8626">PlaybackService 1 (stateless)</text></g><!--entity PS2_--><g id="elem_PS2_"><rect fill="#F1F1F1" height="37.6094" rx="2.5" ry="2.5" style="stroke:#181818;stroke-width:0.5;" width="203.627" x="1170" y="756.3294"/><text fill="#000000" font-family="sans-serif" font-size="14" lengthAdjust="spacing" textLength="183.627" x="1180" y="780.8626">PlaybackService 2 (stateless)</text></g><!--entity PS3_--><g id="elem_PS3_"><rect fill="#F1F1F1" height="37.6094" rx="2.5" ry="2.5" style="stroke:#181818;stroke-width:0.5;" width="31.6689" x="864" y="756.3294"/><text fill="#000000" font-family="sans-serif" font-size="14" lengthAdjust="spacing" textLength="11.6689" x="874" y="780.8626">...</text></g><!--entity LB2_--><g id="elem_LB2_"><rect fill="#F1F1F1" height="37.6094" rx="2.5" ry="2.5" style="stroke:#181818;stroke-width:0.5;" width="110.2891" x="1126" y="896.3294"/><text fill="#000000" font-family="sans-serif" font-size="14" lengthAdjust="spacing" textLength="90.2891" x="1136" y="920.8626">Load Balancer</text></g><!--entity CBP2_--><g id="elem_CBP2_"><rect fill="#F1F1F1" height="37.6094" rx="2.5" ry="2.5" style="stroke:#181818;stroke-width:0.5;" width="152.2549" x="1126" y="1012.3294"/><text fill="#000000" font-family="sans-serif" font-size="14" lengthAdjust="spacing" textLength="132.2549" x="1136" y="1036.8626">Circuit Breaker Proxy</text></g><!--entity CS1_--><g id="elem_CS1_"><rect fill="#F1F1F1" height="37.6094" rx="2.5" ry="2.5" style="stroke:#181818;stroke-width:0.5;" width="305.5781" x="931" y="1152.3294"/><text fill="#000000" font-family="sans-serif" font-size="14" lengthAdjust="spacing" textLength="285.5781" x="941" y="1176.8626">ContentRecommendationService 1 (stateless)</text></g><!--entity CS2_--><g id="elem_CS2_"><rect fill="#F1F1F1" height="37.6094" rx="2.5" ry="2.5" style="stroke:#181818;stroke-width:0.5;" width="305.5781" x="1272" y="1152.3294"/><text fill="#000000" font-family="sans-serif" font-size="14" lengthAdjust="spacing" textLength="285.5781" x="1282" y="1176.8626">ContentRecommendationService 2 (stateless)</text></g><!--entity CS3_--><g id="elem_CS3_"><rect fill="#F1F1F1" height="37.6094" rx="2.5" ry="2.5" style="stroke:#181818;stroke-width:0.5;" width="31.6689" x="864" y="1152.3294"/><text fill="#000000" font-family="sans-serif" font-size="14" lengthAdjust="spacing" textLength="11.6689" x="874" y="1176.8626">...</text></g><!--link GMN9 to DLB--><g id="link_GMN9_DLB"><path d="M985.77,217.6994 C968.59,237.4994 943.8,263.4694 918,281.6094 C892.79,299.3394 855.42,310.8694 853.11,311.5794 " fill="transparent" id="GMN9-DLB" style="stroke:#181818;stroke-width:1;stroke-dasharray:7.0,7.0;"/></g><!--link Client 1 to DLB--><g id="link_Client 1_DLB"><path d="M539.71,207.1694 C546.36,228.7794 560.74,264.1994 587,281.6094 C611.4,297.7894 676.22,305.3094 735.76,308.7744 C765.53,310.5069 793.98,311.2256 815.3975,311.5063 C826.1063,311.6466 835.0569,311.6773 841.5353,311.6705 C842.3451,311.6697 843.1163,311.6683 843.8474,311.6664 C844.213,311.6654 838.5686,311.6843 838.914,311.6832 " fill="transparent" id="Client 1-to-DLB" style="stroke:#181818;stroke-width:1;"/><polygon fill="#181818" points="844.914,311.6632,835.9007,307.6932,839.914,311.6798,835.9273,315.6931,844.914,311.6632" style="stroke:#181818;stroke-width:1;"/><text fill="#000000" font-family="sans-serif" font-size="13" lengthAdjust="spacing" textLength="79.479" x="588" y="262.1045">DNS Request</text><text fill="#000000" font-family="sans-serif" font-size="13" lengthAdjust="spacing" textLength="66.4854" x="594.4968" y="278.4561">to netflix.de</text></g><!--link Client 2 to DLB--><g id="link_Client 2_DLB"><path d="M646.75,207.1894 C659.21,228.4694 682.82,263.2294 713,281.6094 C739.75,297.8994 774.0825,305.4219 802.0538,308.8606 C816.0394,310.58 828.4347,311.2784 837.4967,311.5414 C839.7622,311.6071 841.8194,311.6457 843.641,311.6661 C844.0964,311.6712 838.5373,311.633 838.9628,311.636 " fill="transparent" id="Client 2-to-DLB" style="stroke:#181818;stroke-width:1;"/><polygon fill="#181818" points="844.9626,311.6782,835.991,307.6149,839.9628,311.643,835.9347,315.6147,844.9626,311.6782" style="stroke:#181818;stroke-width:1;"/><text fill="#000000" font-family="sans-serif" font-size="13" lengthAdjust="spacing" textLength="79.479" x="714" y="262.1045">DNS Request</text><text fill="#000000" font-family="sans-serif" font-size="13" lengthAdjust="spacing" textLength="59.9663" x="723.7563" y="278.4561">to netflix.fr</text></g><!--link Client 3 to DLB--><g id="link_Client 3_DLB"><path d="M760.17,207.3294 C772.77,218.5194 788.81,233.3794 802,247.6094 C813.98,260.5294 826.32,275.9494 835.86,288.4156 C838.245,291.5322 840.455,294.4641 842.4406,297.1263 C842.937,297.7918 843.4194,298.4405 843.887,299.0709 C844.1208,299.3862 844.3509,299.6969 844.5772,300.0028 C844.6903,300.1558 841.2378,295.4814 841.3491,295.632 " fill="transparent" id="Client 3-to-DLB" style="stroke:#181818;stroke-width:1;"/><polygon fill="#181818" points="844.9138,300.4582,842.7842,290.8424,841.9432,296.4364,836.3492,295.5953,844.9138,300.4582" style="stroke:#181818;stroke-width:1;"/><text fill="#000000" font-family="sans-serif" font-size="13" lengthAdjust="spacing" textLength="79.479" x="830" y="262.1045">DNS Request</text><text fill="#000000" font-family="sans-serif" font-size="13" lengthAdjust="spacing" textLength="76.5845" x="831.4473" y="278.4561">to netflix.com</text></g><!--link DLB to LB--><g id="link_DLB_LB"><path d="M844.8552,314.5465 C844.6496,314.59 844.4405,314.6345 844.2281,314.6799 C842.5287,315.0433 840.6131,315.4685 838.5089,315.9592 C830.0922,317.9222 818.6581,320.9338 805.9738,325.2306 C780.605,333.8244 750.235,347.5594 729,368.3294 C690.28,406.1994 671.6399,463.5399 663.6699,494.4099 " fill="transparent" id="DLB-to-LB" style="stroke:#181818;stroke-width:1;"/><polygon fill="#181818" points="662.17,500.2194,668.2928,492.5051,663.4199,495.3781,660.5468,490.5052,662.17,500.2194" style="stroke:#181818;stroke-width:1;"/><text fill="#000000" font-family="sans-serif" font-size="13" lengthAdjust="spacing" textLength="170.5234" x="730" y="382.8245">Resolve to dns-eu.netflix.com</text></g><!--link DLB to LB_--><g id="link_DLB_LB_"><path d="M861.4083,320.3459 C861.5336,320.4582 861.6601,320.5715 861.7876,320.6859 C862.0428,320.9147 862.3023,321.1478 862.5661,321.3851 C863.6213,322.3345 864.7448,323.3515 865.9268,324.4293 C868.2906,326.5849 870.8881,328.9841 873.64,331.5731 C884.6475,341.9294 898.125,355.3244 909,368.3294 C946.29,412.9194 980.0471,465.7823 997.8571,494.8723 " fill="transparent" id="DLB-to-LB_" style="stroke:#181818;stroke-width:1;"/><polygon fill="#181818" points="1000.99,499.9894,999.7021,490.2251,998.3793,495.7251,992.8792,494.4023,1000.99,499.9894" style="stroke:#181818;stroke-width:1;"/><text fill="#000000" font-family="sans-serif" font-size="13" lengthAdjust="spacing" textLength="169.7935" x="922" y="382.8245">Resolve to dns-us.netflix.com</text></g><!--link LB to CBP--><g id="link_LB_CBP"><path d="M658,538.3894 C658,559.6094 658,588.6294 658,609.9694 " fill="transparent" id="LB-to-CBP" style="stroke:#181818;stroke-width:1;"/><polygon fill="#181818" points="658,615.9694,662,606.9694,658,610.9694,654,606.9694,658,615.9694" style="stroke:#181818;stroke-width:1;"/><text fill="#000000" font-family="sans-serif" font-size="13" lengthAdjust="spacing" textLength="99.709" x="659" y="582.8245">Forward Request</text></g><!--link CBP to PS1--><g id="link_CBP_PS1"><path d="M617.8,654.4494 C598.52,663.4894 575.26,674.9094 555,686.3294 C515.43,708.6294 476.604,734.4099 449.684,752.9199 " fill="transparent" id="CBP-to-PS1" style="stroke:#181818;stroke-width:1;"/><polygon fill="#181818" points="444.74,756.3194,454.4224,754.5162,448.86,753.4865,449.8897,747.9241,444.74,756.3194" style="stroke:#181818;stroke-width:1;"/><text fill="#000000" font-family="sans-serif" font-size="13" lengthAdjust="spacing" textLength="93.228" x="556" y="700.8245">Handle Request</text></g><!--link CBP to PS2--><g id="link_CBP_PS2"><path d="M658,654.3694 C658,680.8194 658,723.8294 658,750.2794 " fill="transparent" id="CBP-to-PS2" style="stroke:#181818;stroke-width:1;"/><polygon fill="#181818" points="658,756.2794,662,747.2794,658,751.2794,654,747.2794,658,756.2794" style="stroke:#181818;stroke-width:1;"/><text fill="#000000" font-family="sans-serif" font-size="13" lengthAdjust="spacing" textLength="93.228" x="659" y="700.8245">Handle Request</text></g><!--link PS1 to LB2--><g id="link_PS1_LB2"><path d="M428.8,794.3694 C443.18,820.8194 466.9557,864.5572 481.3257,891.0072 " fill="transparent" id="PS1-to-LB2" style="stroke:#181818;stroke-width:1;"/><polygon fill="#181818" points="484.19,896.2794,483.4083,886.4616,481.8031,891.8859,476.3788,890.2807,484.19,896.2794" style="stroke:#181818;stroke-width:1;"/><text fill="#000000" font-family="sans-serif" font-size="13" lengthAdjust="spacing" textLength="48.4199" x="455" y="840.8245">Request</text></g><!--link PS2 to LB2--><g id="link_PS2_LB2"><path d="M636.56,794.3694 C605.13,820.8194 551.4707,865.966 520.0407,892.416 " fill="transparent" id="PS2-to-LB2" style="stroke:#181818;stroke-width:1;"/><polygon fill="#181818" points="515.45,896.2794,524.9116,893.5449,519.2756,893.0599,519.7605,887.4239,515.45,896.2794" style="stroke:#181818;stroke-width:1;"/><text fill="#000000" font-family="sans-serif" font-size="13" lengthAdjust="spacing" textLength="48.4199" x="596" y="840.8245">Request</text></g><!--link LB2 to CBP2--><g id="link_LB2_CBP2"><path d="M497.33,934.3894 C501.24,955.6094 506.6033,984.7286 510.5333,1006.0686 " fill="transparent" id="LB2-to-CBP2" style="stroke:#181818;stroke-width:1;"/><polygon fill="#181818" points="511.62,1011.9694,513.9238,1002.3938,510.7144,1007.0521,506.0561,1003.8427,511.62,1011.9694" style="stroke:#181818;stroke-width:1;"/><text fill="#000000" font-family="sans-serif" font-size="13" lengthAdjust="spacing" textLength="99.709" x="506" y="978.8245">Forward Request</text></g><!--link CBP2 to CS1--><g id="link_CBP2_CS1"><path d="M482.45,1050.3694 C434.73,1076.8194 351.5381,1122.9211 303.8081,1149.3711 " fill="transparent" id="CBP2-to-CS1" style="stroke:#181818;stroke-width:1;"/><polygon fill="#181818" points="298.56,1152.2794,308.3709,1151.4157,302.9334,1149.8558,304.4932,1144.4183,298.56,1152.2794" style="stroke:#181818;stroke-width:1;"/><text fill="#000000" font-family="sans-serif" font-size="13" lengthAdjust="spacing" textLength="93.228" x="421" y="1096.8245">Handle Request</text></g><!--link CBP2 to CS2--><g id="link_CBP2_CS2"><path d="M527.03,1050.3694 C544.66,1076.8194 574.0122,1120.8368 591.6422,1147.2868 " fill="transparent" id="CBP2-to-CS2" style="stroke:#181818;stroke-width:1;"/><polygon fill="#181818" points="594.97,1152.2794,593.3067,1142.572,592.1969,1148.1189,586.65,1147.009,594.97,1152.2794" style="stroke:#181818;stroke-width:1;"/><text fill="#000000" font-family="sans-serif" font-size="13" lengthAdjust="spacing" textLength="93.228" x="559" y="1096.8245">Handle Request</text></g><!--link LB_ to CBP_--><g id="link_LB__CBP_"><path d="M1015.33,538.3894 C1019.24,559.6094 1024.6033,588.7286 1028.5333,610.0686 " fill="transparent" id="LB_-to-CBP_" style="stroke:#181818;stroke-width:1;"/><polygon fill="#181818" points="1029.62,615.9694,1031.9238,606.3938,1028.7144,611.0521,1024.0561,607.8427,1029.62,615.9694" style="stroke:#181818;stroke-width:1;"/><text fill="#000000" font-family="sans-serif" font-size="13" lengthAdjust="spacing" textLength="99.709" x="1024" y="582.8245">Forward Request</text></g><!--link CBP_ to PS1_--><g id="link_CBP__PS1_"><path d="M1033,654.3694 C1033,680.8194 1033,723.8294 1033,750.2794 " fill="transparent" id="CBP_-to-PS1_" style="stroke:#181818;stroke-width:1;"/><polygon fill="#181818" points="1033,756.2794,1037,747.2794,1033,751.2794,1029,747.2794,1033,756.2794" style="stroke:#181818;stroke-width:1;"/><text fill="#000000" font-family="sans-serif" font-size="13" lengthAdjust="spacing" textLength="93.228" x="1034" y="700.8245">Handle Request</text></g><!--link CBP_ to PS2_--><g id="link_CBP__PS2_"><path d="M1073.2,654.4494 C1092.48,663.4894 1115.74,674.9094 1136,686.3294 C1175.57,708.6294 1214.396,734.4099 1241.316,752.9199 " fill="transparent" id="CBP_-to-PS2_" style="stroke:#181818;stroke-width:1;"/><polygon fill="#181818" points="1246.26,756.3194,1241.1103,747.9241,1242.14,753.4865,1236.5776,754.5162,1246.26,756.3194" style="stroke:#181818;stroke-width:1;"/><text fill="#000000" font-family="sans-serif" font-size="13" lengthAdjust="spacing" textLength="93.228" x="1163" y="700.8245">Handle Request</text></g><!--link PS1_ to LB2_--><g id="link_PS1__LB2_"><path d="M1052.35,794.3694 C1080.71,820.8194 1128.8915,865.7378 1157.2615,892.1878 " fill="transparent" id="PS1_-to-LB2_" style="stroke:#181818;stroke-width:1;"/><polygon fill="#181818" points="1161.65,896.2794,1157.7949,887.2164,1157.9929,892.8698,1152.3395,893.0678,1161.65,896.2794" style="stroke:#181818;stroke-width:1;"/><text fill="#000000" font-family="sans-serif" font-size="13" lengthAdjust="spacing" textLength="48.4199" x="1103" y="840.8245">Request</text></g><!--link PS2_ to LB2_--><g id="link_PS2__LB2_"><path d="M1260.1,794.3694 C1242.66,820.8194 1213.6428,864.8202 1196.2028,891.2702 " fill="transparent" id="PS2_-to-LB2_" style="stroke:#181818;stroke-width:1;"/><polygon fill="#181818" points="1192.9,896.2794,1201.1936,890.9675,1195.6523,892.1051,1194.5148,886.5638,1192.9,896.2794" style="stroke:#181818;stroke-width:1;"/><text fill="#000000" font-family="sans-serif" font-size="13" lengthAdjust="spacing" textLength="48.4199" x="1238" y="840.8245">Request</text></g><!--link LB2_ to CBP2_--><g id="link_LB2__CBP2_"><path d="M1184.33,934.3894 C1188.24,955.6094 1193.6033,984.7286 1197.5333,1006.0686 " fill="transparent" id="LB2_-to-CBP2_" style="stroke:#181818;stroke-width:1;"/><polygon fill="#181818" points="1198.62,1011.9694,1200.9238,1002.3938,1197.7144,1007.0521,1193.0561,1003.8427,1198.62,1011.9694" style="stroke:#181818;stroke-width:1;"/><text fill="#000000" font-family="sans-serif" font-size="13" lengthAdjust="spacing" textLength="99.709" x="1193" y="978.8245">Forward Request</text></g><!--link CBP2_ to CS1_--><g id="link_CBP2__CS1_"><path d="M1186.57,1050.3694 C1163.96,1076.8194 1125.9496,1121.2695 1103.3296,1147.7195 " fill="transparent" id="CBP2_-to-CS1_" style="stroke:#181818;stroke-width:1;"/><polygon fill="#181818" points="1099.43,1152.2794,1108.3194,1148.0393,1102.6797,1148.4794,1102.2395,1142.8397,1099.43,1152.2794" style="stroke:#181818;stroke-width:1;"/><text fill="#000000" font-family="sans-serif" font-size="13" lengthAdjust="spacing" textLength="93.228" x="1158" y="1096.8245">Handle Request</text></g><!--link CBP2_ to CS2_--><g id="link_CBP2__CS2_"><path d="M1231.15,1050.3694 C1273.89,1076.8194 1347.998,1122.6719 1390.738,1149.1219 " fill="transparent" id="CBP2_-to-CS2_" style="stroke:#181818;stroke-width:1;"/><polygon fill="#181818" points="1395.84,1152.2794,1390.2919,1144.1419,1391.5883,1149.6482,1386.082,1150.9446,1395.84,1152.2794" style="stroke:#181818;stroke-width:1;"/><text fill="#000000" font-family="sans-serif" font-size="13" lengthAdjust="spacing" textLength="93.228" x="1307" y="1096.8245">Handle Request</text></g><!--SRC=[hLPDRnen4BtlhvYcbrGLY7MQe5HH922XZOGY16eLgOqiPzTiB1QRsbu8ZNBgt-gf_METDH_P3OQ6A1TWl6-UPzxiq_1ch5aoOc0cIL_yv73ovNtOFWfhft1r5LXXKmuD7TqAouSsqx5WYMQZ4Oo4XPRGKORVJStPa6leQdKtWqp6q54iXYPBcOpmVF3trv_V6Ywv7QJYBWZCKCWnGng8r6Yi99UsRsTuaUQHPJ99UH4pPj6G9Hpk0q3AQ9XeXLUqLAhqoSdPPV_q5DwUrzhrTYC7A1rpNNvOgzMFZvg-x4isuWRvUPZZsWVdX-t3foHbp54ZR1utjd8HnzL6jjf6BeSvFpeCQxNW8GYMBUwrKe5Yc3tNxBTv1E5r8I35uC05rMhrkiI2VKE7pRZUWwK8ETzAx0MYEACzO0REEaq7193ASh1g36gGdxep0Cogt30ZkCQd7MRi9Fybqamc2yHNhgTS60ii6-3WZE4ovh1gsm2Jjqp62tIF9poLC1KSUhcI-7aZf7k1Fd5KB69MA5brQ2HoLM7mK6fsHGxILCA3Egd6-8DdLJb_tQhOTgv3QOxtWIDTaLp8H7DZF9fST9hXGfIIWkl8bKm5bDSX3jrgTXtyuKabtPJDRZ3eSpqHs5IZUm7xu-mc5T4xbzXjzhq5FKqCOTzOPdcAVIqo- -7_quWdZQoduJktU7ZWRQF74Jp2eRaHFj4Lytexo4fsr9LuAsefQJ6tN5XPPIqcsFcywrRFB_DMcdNDMpxDjt8G3yUM0RHM0zXeYjg7UkXCaPcDfY2xce8yTtfqn-dH5zk2lDWMz8M-e5kDGNTt1iojyMnnoQxg4lfAvY2lOmxw6kwWM-r17_tnk56XKZbr- -vZljLm4_t8kB7VfLMmj4ZCWyUb-mpyG0UFU_aPUAmso14vqW5xtAXqakzTM5zX1IXTnvQT7GH13exLL682JXqJsafFcOwNbGJvwHA13a34PrpC-1_C3o3hW3nhNX1n1IrFYUSqZmhr47z11So6Yee8JqbvtxHu4VLVH8kjK-zDHGYXtkxfib5QxjzxxiAY11jAAw8srLR2-8hx1m00]--></g></svg>